HIERARCHY
ROOT Hips
{
  OFFSET 44.3025 97.4448 -119.213
  CHANNELS 6 Xposition Yposition Zposition Zrotation Xrotation Yrotation
  JOINT RightUpLeg
  {
    OFFSET -8.9458 -8.66707 0.101652
    CHANNELS 3 Zrotation Xrotation Yrotation
    JOINT RightLeg
    {
      OFFSET 0 -44.4227 1.3727
      CHANNELS 3 Zrotation Xrotation Yrotation
      JOINT RightFoot
      {
        OFFSET 0.253549 -42.0924 -1.46059
        CHANNELS 3 Zrotation Xrotation Yrotation
        JOINT RightToes
        {
          OFFSET 0.04 -4.41509 8.4991
          CHANNELS 3 Zrotation Xrotation Yrotation
          End Site
          {
            OFFSET -0.08 -0.137448 9.77979
          }
        }
      }
    }
  }
  JOINT Spine
  {
    OFFSET 0 11.8905 0
    CHANNELS 3 Zrotation Xrotation Yrotation
    JOINT Spine1
    {
      OFFSET 0 25.6574 0.127663
      CHANNELS 3 Zrotation Xrotation Yrotation
      JOINT HEad
      {
        OFFSET 0 8.73416 0.011341
        CHANNELS 3 Zrotation Xrotation Yrotation
        End Site
        {
          OFFSET -0.29 12.7742 2.51395
        }
      }
      JOINT LeftShoulder1
      {
        OFFSET 8.99 -0.362252 -0.22
        CHANNELS 3 Zrotation Xrotation Yrotation
        JOINT LeftArm
        {
          OFFSET 10.2827 -0.00338 0.322123
          CHANNELS 3 Zrotation Xrotation Yrotation
          JOINT LeftForeArm
          {
            OFFSET 32.7669 0.099144 -1.42434
            CHANNELS 3 Zrotation Xrotation Yrotation
            JOINT LeftHand
            {
              OFFSET 27.5643 0.085362 1.02216
              CHANNELS 3 Zrotation Xrotation Yrotation
              End Site
              {
                OFFSET 16.7443 -0.6 1.50291
              }
            }
          }
        }
      }
      JOINT RightShoulder
      {
        OFFSET -8.99 -0.362252 -0.22
        CHANNELS 3 Zrotation Xrotation Yrotation
        JOINT RightArm
        {
          OFFSET -10.2827 -0.00338 0.322123
          CHANNELS 3 Zrotation Xrotation Yrotation
          JOINT RightForeArm
          {
            OFFSET -32.8971 0.099144 -1.42434
            CHANNELS 3 Zrotation Xrotation Yrotation
            JOINT RightHand
            {
              OFFSET -27.4921 0.085362 1.02216
              CHANNELS 3 Zrotation Xrotation Yrotation
              End Site
              {
                OFFSET -16.6312 -0.6 1.50291
              }
            }
          }
        }
      }
    }
  }
  JOINT LeftUpLeg
  {
    OFFSET 8.9458 -8.66707 0.101652
    CHANNELS 3 Zrotation Xrotation Yrotation
    JOINT LeftLeg
    {
      OFFSET 0 -44.4227 1.3727
      CHANNELS 3 Zrotation Xrotation Yrotation
      JOINT LeftFoot
      {
        OFFSET -0.253549 -42.0924 -1.46059
        CHANNELS 3 Zrotation Xrotation Yrotation
        JOINT LeftToes
        {
          OFFSET -0.04 -4.41509 8.4991
          CHANNELS 3 Zrotation Xrotation Yrotation
          End Site
          {
            OFFSET 0.08 -0.047448 9.77979
          }
        }
      }
    }
  }
}
MOTION
Frames:	10
Frame Time:	0.0166667
44.5615 88.8933 -123.125 5.37829 -3.21857 -20.9166 -36.4847 -16.8729 -5.41317 34.296 54.1633 -64.4559 18.0289 -0.552654 0.570177 0.0462049 0.000533403 0.662642 -4.2098 12.2428 7.60804 0.000639723 -6.38225e-009 1.11296e-006 -22.8051 15.165 36.1698 -1.19271e-015 0 1.59028e-015 -135.737 -19.6327 -105.269 -61.4905 49.9169 -37.8815 32.5213 2.5297 -45.882 7.88745 5.78617 20.7194 84.1784 7.65855 92.6845 43.6364 36.3311 55.2611 -31.8686 11.8897 22.4711 21.8231 -42.5769 18.8798 -23.323 59.3853 22.069 0.383776 -0.926807 0.23468 -2.9187e-009 1.56015e-007 -4.87132e-009 
44.5719 87.9164 -123.827 5.30048 -3.63299 -20.9763 -36.1778 -17.6344 -6.4429 34.7706 55.1928 -66.3806 10.5679 -0.58154 0.269317 0.0462049 0.000533403 0.662642 -3.94789 12.8532 7.89298 0.000639723 -6.38226e-009 1.11296e-006 -22.8652 15.2071 35.6012 -7.95139e-016 -1.59028e-015 -3.18055e-015 -135.595 -19.5226 -104.102 -68.4402 46.7591 -36.9118 30.0996 0.897161 -52.436 8.05932 5.34598 19.5028 82.7518 7.03737 91.8685 43.7417 34.554 56.0188 -28.1864 7.41729 31.4935 21.9738 -42.3638 18.9098 -23.027 59.258 21.909 -1.05658 -0.966528 0.162028 -2.9187e-009 1.56015e-007 -4.87132e-009 
44.4295 86.7496 -124.607 5.19588 -4.14161 -21.0342 -35.9651 -18.3816 -7.32738 38.2453 57.1652 -70.1585 3.54047 -0.13107 -0.176142 0.0462049 0.000533403 0.662642 -3.62159 13.4378 8.09745 0.000639723 -6.38226e-009 1.11296e-006 -22.9013 15.2675 34.9837 7.95139e-016 0 -0 -135.456 -19.5038 -102.641 -72.3681 45.2898 -36.6942 33.9259 9.66995 -49.0757 8.26803 5.12558 18.4878 81.6377 7.04385 91.0789 44.3102 33.167 56.4178 -28.8813 9.05135 26.8158 22.2499 -42.1351 18.9339 -22.5806 59.2116 21.6428 -2.67805 -1.08855 0.0514978 -2.9187e-009 1.56015e-007 -4.87132e-009 
44.1133 85.3141 -125.468 5.06718 -4.77309 -21.0892 -36.0412 -19.2622 -8.16674 44.1955 59.7834 -75.2611 -2.97584 0.483242 -0.481264 0.0462049 0.000533403 0.662642 -3.21782 14.0356 8.19227 0.000639723 -6.38225e-009 1.11296e-006 -22.9827 15.3521 34.3818 1.59028e-015 1.59028e-015 1.59028e-015 -135.326 -19.1189 -101.215 -73.9292 44.4515 -36.4022 24.5363 -8.29382 -62.8081 8.79099 5.24322 17.3758 80.4695 8.12831 89.781 48.8356 29.6861 55.8677 -21.764 -5.58049 42.7764 22.7033 -41.9502 18.9914 -22.0931 59.4157 21.3536 -4.48127 -1.2475 -0.0879839 -2.9187e-009 1.56015e-007 -4.87132e-009 
43.6713 83.6076 -126.399 4.92201 -5.53935 -21.1697 -36.3383 -20.2473 -8.97551 49.5806 61.9739 -79.8451 -9.51111 1.03933 -0.619167 0.0462049 0.000533403 0.662642 -2.77679 14.6727 8.21897 0.000639723 -6.38225e-009 1.11296e-006 -23.1141 15.4704 33.8096 -1.59028e-015 1.59028e-015 -3.18055e-015 -135.341 -18.9923 -99.671 -75.0584 44.3999 -36.3122 29.4806 3.18377 -53.1152 9.09197 5.48846 16.6622 79.8066 9.44405 88.4665 54.9058 24.0463 55.411 -21.779 13.7978 33.4478 23.3257 -41.8483 19.1086 -21.5899 59.9358 21.0705 -6.44639 -1.37927 -0.235652 -2.9187e-009 1.56015e-007 -4.87132e-009 
43.1181 83.6714 -126.688 4.79427 -6.44207 -21.301 -35.1854 -19.2148 -11.4028 43.4222 63.1446 -73.2937 -16.6843 3.50932 -0.426226 0.0462049 0.000533403 0.662642 -2.35269 15.3618 8.20484 0.000639723 -6.38226e-009 1.11296e-006 -23.3255 15.6259 33.3017 -7.95139e-016 3.18055e-015 -3.18055e-015 -135.546 -19.3769 -98.0867 -76.2103 44.7078 -36.525 26.5489 -3.63892 -61.9143 9.22445 5.88386 16.0755 79.5211 10.9193 87.2354 58.3576 21.3124 55.3535 -19.4724 10.3575 42.9869 22.1255 -39.255 18.2782 -18.2596 57.1564 18.5841 -8.35615 -0.456893 -0.574206 -2.9187e-009 1.56015e-007 -4.87131e-009 
42.4967 83.3958 -127.039 4.71377 -7.46777 -21.5114 -34.4696 -18.4762 -13.8314 39.2858 65.4306 -66.6018 -22.8973 6.09524 0.0916115 0.0462049 0.000533403 0.662642 -1.7992 15.7866 7.87135 0.000639723 0.0067 1.11296e-006 -23.8782 16.0295 33.2651 -3.97569e-016 0 -0 -136.019 -20.4987 -96.425 -77.4823 45.2365 -36.7221 29.304 2.7074 -56.4517 9.07487 6.78721 15.8819 79.5321 12.4436 86.145 60.2083 20.1089 55.0935 -19.9032 19.0851 37.5066 21.2833 -36.9415 17.7546 -15.5652 54.9252 16.7472 -10.4285 0.510798 -0.869582 -2.9187e-009 1.56015e-007 -4.87132e-009 
41.8846 82.82 -127.432 4.70135 -8.5902 -21.8292 -34.0155 -17.8954 -16.2052 34.0721 67.401 -58.7822 -29.2868 8.42665 0.986524 0.0462049 0.000533403 0.662642 -1.18322 16.036 7.26867 0.000639723 0.0127 1.11296e-006 -24.7671 16.5822 33.6788 0 0 -0 -136.741 -22.3019 -94.804 -78.9669 45.8422 -36.9805 27.5276 -1.44544 -61.9338 8.69083 8.06726 16.0282 79.7514 13.9516 85.1717 61.1987 19.7639 54.6804 -13.3124 -0.940572 52.0213 20.7117 -35.0007 17.4945 -13.382 53.3959 15.4395 -12.6389 1.46664 -1.11799 -2.9187e-009 1.56015e-007 -4.87132e-009 
41.3185 81.6348 -127.949 4.77341 -9.81681 -22.3081 -34.148 -17.8038 -19.6739 26.7434 70.5339 -48.3895 -35.3318 10.4942 2.10051 0.0462049 0.000533403 0.662642 -0.551266 16.2511 6.44125 0.00293979 0.0180298 0.00187153 -26.0224 17.1535 34.5412 -1.78906e-015 -7.95139e-016 6.36111e-015 -137.704 -24.5577 -93.2613 -80.8025 46.5817 -36.9947 28.758 1.9776 -58.9648 8.23032 9.69089 16.4273 79.9573 15.5498 84.3236 61.7285 19.8735 53.94 -15.9294 11.2176 44.1211 20.6999 -33.9534 17.6628 -11.8589 53.5508 14.7152 -15.045 2.2472 -1.35051 -2.9187e-009 1.56015e-007 -4.87132e-009 
40.8313 80.3828 -128.442 5.31158 -12.3268 -24.5123 -35.0023 -18.3506 -22.0843 14.7159 74.3905 -32.9997 -41.0365 12.3369 3.33769 0.0462049 0.000533403 0.662642 -0.524252 18.4591 6.58105 0.0693991 0.0990519 -0.0226329 -28.4625 16.5696 35.6462 -1.98785e-016 -1.59028e-015 3.18055e-015 -140.247 -26.6979 -92.9981 -82.9413 47.2955 -36.9384 27.8324 -0.561102 -62.3439 6.49065 10.4324 17.6344 80.3145 16.9374 83.5895 62.1344 20.0597 53.3583 -13.4374 4.95474 50.3627 21.0391 -32.2544 19.5794 -10.8917 55.3935 14.4557 -17.5614 2.72712 -1.59272 -2.9187e-009 1.56015e-007 -4.87132e-009 
